# xmcd CD database file
#
# Track frame offsets:
#	150
#	18101
#	35809
#	56623
#	78669
#	95090
#	112524
#	134638
#
# Disc length: 2063 seconds
#
# Revision: 5
# Processed by: cddbd v1.5.2PL0 Copyright (c) Steve Scherf et al.
# Submitted via: jetAudio 7
#
DISCID=64080d08
DTITLE=??? ?? - ?? ??
DYEAR=1900
DGENRE=?? ??
TTITLE0=?? 1
TTITLE1=?? 2
TTITLE2=?? 3
TTITLE3=?? 4
TTITLE4=?? 5
TTITLE5=?? 6
TTITLE6=?? 7
TTITLE7=?? 8
EXTD=
EXTT0=
EXTT1=
EXTT2=
EXTT3=
EXTT4=
EXTT5=
EXTT6=
EXTT7=
PLAYORDER=
